<?xml version="1.0" encoding="UTF-8"?>
<svg version="1.1" viewBox="0 0 96.618 30.2" xmlns="http://www.w3.org/2000/svg" xmlns:cc="http://creativecommons.org/ns#" xmlns:dc="http://purl.org/dc/elements/1.1/" xmlns:rdf="http://www.w3.org/1999/02/22-rdf-syntax-ns#">
 <defs>
  <clipPath id="clipPath26">
   <path d="m162.04 154.86-26.221-24.943c-2.843-2.703-5.771-5.05-7.754-8.483-1.426-2.471-2.975-6.161-3.091-10.659-0.018-0.659 7e-3 -1.338 0.055-2.029l26.766 22.735c1.822 1.547 4.061 3.123 6.616 2.534 2.272-0.524 3.679-2.913 4.579-6.378 0 0 3.724-18.808 4.35-20.688 0.626-1.877 2.467-0.73 2.467-0.73l23.695 20.85c-1.554 1.506-3.2 2.937-4.781 4.441l-24.608 23.412c-0.26 0.296-0.618 0.437-0.98 0.437-0.403 0-0.81-0.174-1.093-0.499"/>
  </clipPath>
  <linearGradient id="linearGradient36" x2="1" gradientTransform="matrix(60.739 -52.799 52.799 60.739 132.6 153.37)" gradientUnits="userSpaceOnUse">
   <stop stop-color="#f58220" offset="0"/>
   <stop stop-color="#ed1c24" offset="1"/>
  </linearGradient>
  <clipPath id="clipPath46">
   <path d="m167.4 90.572c-1.705-1.359-3.202-1.459-4.428-1.002-2.909 1.082-3.626 3.552-4.157 6.164l-4.189 20.722c-0.662 1.553-2 1.085-2 1.085l-23.104-19.971c0.632-0.736 1.311-1.467 2.045-2.242l15.956-16.85c9.482-10.015 19.377-12.454 29.531-1.731l17.878 18.88c2.968 3.132 4.834 5.619 5.805 9.994 0.359 1.61 0.512 3.154 0.512 4.614 0 3.178-0.728 5.966-1.653 8.238-7.917-6.945-28.219-24.726-32.196-27.901"/>
  </clipPath>
  <linearGradient id="linearGradient56" x2="1" gradientTransform="matrix(66.824 -58.089 58.089 66.824 128.06 133.35)" gradientUnits="userSpaceOnUse">
   <stop stop-color="#f58220" offset="0"/>
   <stop stop-color="#ed1c24" offset="1"/>
  </linearGradient>
  <clipPath id="clipPath66">
   <path d="m162.13 151.64-24.221-23.038c-2.627-2.5-5.332-4.666-7.164-7.839-1.289-2.231-2.677-5.545-2.838-9.574l23.896 20.298c1.822 1.547 4.061 3.123 6.616 2.534 2.272-0.524 3.679-2.913 4.579-6.378 0 0 3.724-18.808 4.35-20.688 0.626-1.877 2.467-0.73 2.467-0.73l3.035 2.672c8.825 11.996 8.49 26.116 8.484 26.351l-17.291 16.45c-0.237 0.274-0.568 0.403-0.902 0.403-0.373 0-0.75-0.16-1.011-0.461"/>
  </clipPath>
  <clipPath id="clipPath74">
   <path d="m104.46 178.91h100.66v-100.64h-100.66z"/>
  </clipPath>
  <clipPath id="clipPath78">
   <path d="m104.46 178.91h100.66v-100.64h-100.66z"/>
  </clipPath>
  <clipPath id="clipPath82">
   <path d="m156.78 178.91 48.343-52.061-52.32-48.583-48.343 52.061z"/>
  </clipPath>
  <linearGradient id="linearGradient88" x2="1" gradientTransform="matrix(57.131 -61.525 61.525 57.131 155.25 128.09)" gradientUnits="userSpaceOnUse">
   <stop stop-color="#231f20" offset="0"/>
   <stop stop-color="#fff" offset="1"/>
  </linearGradient>
  <mask id="mask90" x="0" y="0" width="1" height="1" maskUnits="userSpaceOnUse">
   <g clip-path="url(#clipPath74)">
    <path d="m104.46 178.91h100.66v-100.64h-100.66z"/>
    <g clip-path="url(#clipPath78)">
     <g clip-path="url(#clipPath82)">
      <path d="m156.78 178.91 48.343-52.061-52.32-48.583-48.343 52.061z" fill="url(#linearGradient88)"/>
     </g>
    </g>
   </g>
  </mask>
  <clipPath id="clipPath122">
   <path d="m104.46 178.91h100.66v-100.64h-100.66z"/>
  </clipPath>
  <clipPath id="clipPath126">
   <path d="m156.78 178.91 48.343-52.061-52.32-48.583-48.343 52.061z"/>
  </clipPath>
  <linearGradient id="linearGradient132" x2="1" gradientTransform="matrix(57.131 -61.525 61.525 57.131 155.22 128.12)" gradientUnits="userSpaceOnUse">
   <stop stop-color="#f58220" offset="0"/>
   <stop stop-color="#fff" offset="1"/>
  </linearGradient>
  <clipPath id="clipPath154">
   <path d="m152.63 117.54-21.062-18.207c0.722-0.896 1.527-1.76 2.409-2.691l4.071-4.302c8.329 0.425 15.056 2.194 20.489 4.79l-3.907 19.325c-0.413 0.97-1.091 1.151-1.541 1.151-0.271 0-0.459-0.066-0.459-0.066"/>
  </clipPath>
  <clipPath id="clipPath162">
   <path d="m118.97 131.06h52.166v-52.161h-52.166z"/>
  </clipPath>
  <clipPath id="clipPath166">
   <path d="m118.97 131.06h52.166v-52.161h-52.166z"/>
  </clipPath>
  <clipPath id="clipPath170">
   <path d="m146.05 131.06 25.086-27.015-27.081-25.146-25.085 27.014z"/>
  </clipPath>
  <linearGradient id="linearGradient176" x2="1" gradientTransform="matrix(57.084 -61.474 61.474 57.084 138.25 112.3)" gradientUnits="userSpaceOnUse">
   <stop stop-color="#231f20" offset="0"/>
   <stop stop-color="#fff" offset="1"/>
  </linearGradient>
  <mask id="mask178" x="0" y="0" width="1" height="1" maskUnits="userSpaceOnUse">
   <g clip-path="url(#clipPath162)">
    <path d="m118.97 131.06h52.166v-52.161h-52.166z"/>
    <g clip-path="url(#clipPath166)">
     <g clip-path="url(#clipPath170)">
      <path d="m146.05 131.06 25.086-27.015-27.081-25.146-25.085 27.014z" fill="url(#linearGradient176)"/>
     </g>
    </g>
   </g>
  </mask>
  <clipPath id="clipPath210">
   <path d="m118.97 131.06h52.166v-52.161h-52.166z"/>
  </clipPath>
  <clipPath id="clipPath214">
   <path d="m146.05 131.06 25.086-27.015-27.081-25.146-25.085 27.014z"/>
  </clipPath>
  <linearGradient id="linearGradient220" x2="1" gradientTransform="matrix(57.084 -61.474 61.474 57.084 138.22 112.33)" gradientUnits="userSpaceOnUse">
   <stop stop-color="#f58220" offset="0"/>
   <stop stop-color="#fff" offset="1"/>
  </linearGradient>
 </defs>
 <metadata>
  <rdf:RDF>
   <cc:Work rdf:about="">
    <dc:format>image/svg+xml</dc:format>
    <dc:type rdf:resource="http://purl.org/dc/dcmitype/StillImage"/>
    <dc:title/>
   </cc:Work>
  </rdf:RDF>
 </metadata>
 <g transform="translate(-67.352 -55.204)">
  <g transform="matrix(.35278 0 0 -.35278 23.264 110.01)">
   <g clip-path="url(#clipPath26)">
    <path d="m162.04 154.86-26.221-24.943c-2.843-2.703-5.771-5.05-7.754-8.483-1.426-2.471-2.975-6.161-3.091-10.659-0.018-0.659 7e-3 -1.338 0.055-2.029l26.766 22.735c1.822 1.547 4.061 3.123 6.616 2.534 2.272-0.524 3.679-2.913 4.579-6.378 0 0 3.724-18.808 4.35-20.688 0.626-1.877 2.467-0.73 2.467-0.73l23.695 20.85c-1.554 1.506-3.2 2.937-4.781 4.441l-24.608 23.412c-0.26 0.296-0.618 0.437-0.98 0.437-0.403 0-0.81-0.174-1.093-0.499" fill="url(#linearGradient36)"/>
   </g>
   <g clip-path="url(#clipPath46)">
    <path d="m167.4 90.572c-1.705-1.359-3.202-1.459-4.428-1.002-2.909 1.082-3.626 3.552-4.157 6.164l-4.189 20.722c-0.662 1.553-2 1.085-2 1.085l-23.104-19.971c0.632-0.736 1.311-1.467 2.045-2.242l15.956-16.85c9.482-10.015 19.377-12.454 29.531-1.731l17.878 18.88c2.968 3.132 4.834 5.619 5.805 9.994 0.359 1.61 0.512 3.154 0.512 4.614 0 3.178-0.728 5.966-1.653 8.238-7.917-6.945-28.219-24.726-32.196-27.901" fill="url(#linearGradient56)"/>
   </g>
   <g clip-path="url(#clipPath66)">
    <g mask="url(#mask90)">
     <g clip-path="url(#clipPath122)">
      <g clip-path="url(#clipPath126)">
       <path d="m156.78 178.91 48.343-52.061-52.32-48.583-48.343 52.061z" fill="url(#linearGradient132)"/>
      </g>
     </g>
    </g>
   </g>
   <g clip-path="url(#clipPath154)">
    <g mask="url(#mask178)">
     <g clip-path="url(#clipPath210)">
      <g clip-path="url(#clipPath214)">
       <path d="m146.05 131.06 25.086-27.015-27.081-25.146-25.085 27.014z" fill="url(#linearGradient220)"/>
      </g>
     </g>
    </g>
   </g>
   <g transform="matrix(1 0 0 -1 212.3 110.16)" fill="#383737" aria-label="Human">
    <path d="m37.35 0h-5.5386v-19.598h-21.643v19.598h-5.5102v-41.639h5.5102v17.099h21.643v-17.099h5.5386z"/>
    <path d="m65.034-3.8344q-4.0049 4.5445-9.0039 4.5445-10.197 0-10.197-11.134v-19.712h5.3682v19.485q0 3.6924 1.3066 5.3114 1.3066 1.619 4.3173 1.619 4.4877 0 8.2086-4.8286v-21.587h5.3398v30.136h-5.3398z"/>
    <path d="m119.02 0h-5.3682v-19.485q0-3.7492-1.0793-5.3398t-3.6072-1.5906q-3.8913 0-7.6405 4.8286v21.587h-5.3398v-19.485q0-3.7492-1.0793-5.3398t-3.6356-1.5906q-3.8913 0-7.6121 4.8286v21.587h-5.3682v-30.136h5.3682v3.8344q3.806-4.5161 8.4358-4.5161 6.618 0 8.4358 5.4534 3.0108-3.5504 5.1126-4.4877 2.1018-0.96571 4.1185-0.96571 9.2595 0 9.2595 11.106z"/>
    <path d="m147-7.9245v-6.6748h-3.664q-11.645 0-11.645 6.3339 0 2.3007 1.7042 3.5504 1.7042 1.2213 4.6013 1.2213 2.6415 0 5.1126-1.1929t3.8913-3.238zm0 4.8286q-4.0901 3.806-10.538 3.806-4.4877 0-7.3849-2.4143-2.8971-2.4427-2.8971-6.2771 0-10.566 18.207-10.566h2.6131q0-3.238-0.34084-4.6865-0.34084-1.477-1.903-2.4427-1.5622-0.96571-4.9706-0.96571-7.1576 0-7.3849 5.1126h-5.3398q0.59647-9.2879 13.009-9.2879 5.7943 0 9.0322 2.3007t3.238 9.0323v19.485h-5.3398z"/>
    <path d="m164.51-26.301q4.0049-4.5161 9.0039-4.5161 10.197 0 10.197 11.106v19.712h-5.3682v-19.485q0-3.6924-1.335-5.3114-1.3066-1.619-4.3173-1.619-4.0901 0-8.1802 4.8286v21.587h-5.3682v-30.136h5.3682z"/>
   </g>
   <g transform="matrix(1 0 0 -1 216.36 78.068)" fill="#7f7f7f" aria-label="Who Codes">
    <path d="m32.129-24.621-6.8187 24.621h-3.1239l-5.9118-21.397-5.9286 21.397h-3.1239l-6.8019-24.621h3.4262l4.9209 20.053 5.5423-20.053h3.9132l5.5423 20.053 4.9209-20.053z"/>
    <path d="m37.36-15.552q2.3681-2.6704 5.324-2.6704 6.0294 0 6.0294 6.5668v11.656h-3.1742v-11.521q0-2.1833-0.78936-3.1407-0.77257-0.95731-2.5528-0.95731-2.4185 0-4.8369 2.8551v12.764h-3.1742v-24.621h3.1742z"/>
    <path d="m60.532-18.222q3.8124 0 6.0798 2.4353 2.2841 2.4353 2.2841 6.8859 0 4.4339-2.2841 6.8859-2.2673 2.4353-6.0798 2.4353-3.7957 0-6.0798-2.4353-2.2673-2.4521-2.2673-6.8859 0-4.4507 2.2673-6.8859 2.2841-2.4353 6.0798-2.4353zm0 16.157q2.2673 0 3.6781-1.7131 1.4108-1.7299 1.4108-5.1225 0-3.4094-1.4108-5.1225-1.4108-1.7299-3.6781-1.7299-2.2673 0-3.6781 1.7299-1.4108 1.7131-1.4108 5.1225 0 3.3926 1.4108 5.1225 1.4108 1.7131 3.6781 1.7131z"/>
    <path d="m70.719 0"/>
    <path d="m93.348 0.41987q-5.2232 0-8.3471-3.4262-3.1071-3.443-3.1071-9.3044 0-5.8614 3.1071-9.2876 3.1239-3.443 8.3471-3.443 4.014 0 6.8355 2.1665 2.8216 2.1665 3.1742 5.7103h-3.359q-0.20154-2.3345-2.0322-3.7117-1.8139-1.3772-4.585-1.3772-3.7453 0-5.9286 2.5864-2.1833 2.5696-2.1833 7.3562 0 4.7698 2.1665 7.3562 2.1665 2.5864 5.8782 2.5864 2.8887 0 4.669-1.4108t2.0154-4.0308h3.359q-0.35269 3.93-3.0903 6.0798-2.7376 2.1497-6.9195 2.1497z"/>
    <path d="m114.67-18.222q3.8124 0 6.0798 2.4353 2.2841 2.4353 2.2841 6.8859 0 4.4339-2.2841 6.8859-2.2673 2.4353-6.0798 2.4353-3.7956 0-6.0798-2.4353-2.2673-2.4521-2.2673-6.8859 0-4.4507 2.2673-6.8859 2.2841-2.4353 6.0798-2.4353zm0 16.157q2.2673 0 3.6781-1.7131 1.4108-1.7299 1.4108-5.1225 0-3.4094-1.4108-5.1225-1.4108-1.7299-3.6781-1.7299-2.2673 0-3.6781 1.7299-1.4108 1.7131-1.4108 5.1225 0 3.3926 1.4108 5.1225 1.4108 1.7131 3.6781 1.7131z"/>
    <path d="m138.48-5.1225v-8.4646q-2.049-2.1665-4.6858-2.1665-2.0322 0-3.2582 1.7635-1.2092 1.7467-1.2092 5.2232 0 3.2918 1.1421 5.0049 1.1588 1.6963 3.191 1.6963 2.6536 0 4.8201-3.0567zm0 2.9895q-2.1162 2.5528-5.0889 2.5528-3.4933 0-5.408-2.4856-1.9146-2.4856-1.9146-6.7012 0-4.3667 2.133-6.9027 2.1498-2.5528 5.3912-2.5528 2.8887 0 4.8873 1.7803v-8.1791h3.1574v24.621h-3.1574z"/>
    <path d="m155.16 0.41987q-3.93 0-6.3149-2.4521-2.3849-2.4689-2.3849-6.8691 0-4.3667 2.3009-6.8355 2.3177-2.4856 6.0462-2.4856 3.8124 0 6.0798 2.4353 2.2841 2.4353 2.2841 6.8859v0.75577h-13.419q0.20153 3.0903 1.6963 4.585 1.5116 1.4947 3.7117 1.4947 1.6627 0 2.9895-0.83975 1.3436-0.85654 1.4108-2.4185h3.275q-0.36949 2.7544-2.5024 4.2491-2.1162 1.4947-5.1728 1.4947zm4.669-11.051q-0.38628-2.5696-1.7299-3.846-1.3436-1.2764-3.2918-1.2764-1.8978 0-3.2582 1.2764-1.3604 1.2596-1.7299 3.846z"/>
    <path d="m172.43 0.41987q-7.3058 0-7.6417-5.7439h3.1742q0.0336 3.2582 4.4339 3.2582 1.965 0 2.9895-0.80616 1.0413-0.82295 1.0413-2.049 0-1.2092-1.0077-1.6963-1.0077-0.50385-4.1651-1.2932-3.1406-0.78936-4.6018-1.7635-1.4444-0.9741-1.4444-3.4262 0-2.2169 1.7971-3.6613 1.8138-1.4612 4.8369-1.4612 7.0035 0 7.1546 4.9881h-3.1574q-0.16795-2.5192-3.7789-2.5192-1.5955 0-2.6536 0.60462-1.0413 0.60462-1.0413 1.7635 0 1.0413 0.80615 1.5115 0.80616 0.45346 4.0308 1.2428 3.2414 0.77257 4.8034 1.8139 1.5787 1.0413 1.5787 3.5941 0 2.4353-1.9482 4.0476-1.9314 1.5955-5.2064 1.5955z"/>
   </g>
  </g>
 </g>
</svg>
